<?xml version="1.0" standalone="no"?>
<!DOCTYPE svg PUBLIC "-//W3C//DTD SVG 20010904//EN" "http://www.w3.org/TR/2001/REC-SVG-20010904/DTD/svg10.dtd">
<svg version="1.0" xmlns="http://www.w3.org/2000/svg" width="611.000000pt" height="250.000000pt" viewBox="0 0 611.000000 250.000000" preserveAspectRatio="xMidYMid meet">

<g transform="translate(0.000000,250.000000) scale(0.100000,-0.100000)" fill="currentColor" stroke="none">
  <path d="M3660 2441 c-131 -42 -241 -125 -304 -229 -31 -52 -316 -782 -316 -810 0 -19 783 -16 875 3 351 74 531 461 362 779 -64 121 -197 226 -332 261 -80 20 -215 19 -285 -4z m175 -173 c15 -69 71 -90 115 -43 42 44 66 30 48 -28 -9 -30 -8 -40 6 -62 17 -26 21 -27 72 -20 62 7 71 -6 29 -45 -25 -23 -32 -63 -17 -87 4 -7 26 -19 47 -26 52 -18 58 -43 13 -52 -69 -15 -90 -71 -43 -115 44 -42 30 -66 -28 -48 -30 9 -40 8 -61 -6 -28 -18 -33 -47 -16 -91 14 -38 -12 -43 -51 -11 -53 45 -101 27 -115 -42 -9 -44 -40 -44 -49 1 -15 68 -71 89 -115 42 -42 -44 -66 -30 -48 28 9 30 8 40 -6 61 -18 28 -47 33 -91 16 -38 -14 -45 14 -11 49 26 27 33 64 18 88 -4 7 -26 19 -47 26 -52 18 -58 43 -13 52 70 15 89 67 42 116 -39 41 -27 59 30 46 39 -9 49 -8 66 8 22 20 25 50 10 90 -14 38 14 45 49 11 15 -14 39 -26 53 -26 26 0 58 22 58 40 0 5 4 20 10 34 13 36 37 33 45 -6z"/>
  <path d="M607 1553 c-4 -3 -7 -262 -7 -575 0 -544 -1 -570 -20 -607 -49 -96 -178 -92 -294 10 l-44 39 -86 -92 c-47 -51 -86 -98 -86 -103 0 -16 69 -79 125 -114 189 -118 495 -86 610 64 14 20 38 61 53 93 l27 57 3 618 3 617 -139 0 c-74 0 -142 -3 -145 -7z"/>
  <path d="M4737 1553 c-4 -3 -7 -96 -7 -205 l0 -199 -32 24 c-70 53 -119 70 -208 75 -137 7 -233 -31 -322 -126 -53 -56 -80 -105 -101 -182 -48 -170 -18 -364 74 -483 133 -174 396 -216 543 -86 l45 40 3 -48 3 -48 138 -3 137 -3 0 626 0 625 -133 0 c-74 0 -137 -3 -140 -7z m-120 -562 c138 -63 162 -301 40 -408 -41 -36 -86 -48 -158 -41 -101 10 -172 106 -172 233 0 177 143 282 290 216z"/>
  <path d="M1344 1231 c-236 -68 -387 -303 -345 -539 31 -174 142 -305 316 -372 84 -33 261 -34 349 -2 198 73 326 250 326 452 0 221 -146 408 -365 466 -69 19 -207 16 -281 -5z m218 -235 c91 -33 148 -118 148 -221 0 -107 -38 -178 -116 -216 -36 -17 -58 -20 -114 -17 -90 5 -142 39 -183 118 -25 49 -28 63 -24 125 6 113 51 177 146 211 46 17 96 17 143 0z"/>
  <path d="M3425 1227 c-28 -14 -69 -45 -92 -71 l-42 -48 -3 64 -3 63 -135 0 -135 0 -3 -463 -2 -463 137 3 138 3 6 230 c6 257 13 288 80 352 41 39 77 53 149 62 l55 6 0 140 0 140 -50 3 c-36 2 -64 -4 -100 -21z"/>
  <path d="M5439 1236 c-195 -54 -329 -241 -329 -461 0 -274 174 -462 445 -482 144 -10 262 28 357 117 l63 59 -75 70 c-41 39 -78 70 -81 71 -4 0 -30 -16 -59 -35 -91 -61 -179 -71 -267 -31 -38 18 -58 35 -77 68 -14 25 -26 48 -26 51 0 4 139 7 309 7 l309 0 6 43 c7 45 -7 169 -26 227 -35 111 -118 219 -198 260 -96 49 -248 64 -351 36z m199 -230 c37 -19 68 -55 87 -98 8 -21 15 -40 15 -43 0 -3 -79 -5 -175 -5 -128 0 -175 3 -175 12 0 6 9 31 21 55 38 79 151 118 227 79z"/>
  <path d="M1965 1231 c-3 -6 74 -214 171 -462 l177 -453 -27 -23 c-33 -28 -51 -29 -117 -4 l-50 20 -45 -96 c-24 -53 -44 -100 -44 -105 0 -5 26 -21 58 -35 76 -34 216 -43 289 -19 52 17 113 72 151 136 31 53 394 1028 387 1040 -7 12 -271 14 -279 2 -3 -5 -45 -133 -94 -285 -49 -152 -91 -279 -93 -281 -3 -3 -48 124 -100 282 l-96 287 -141 3 c-84 1 -143 -1 -147 -7z"/>
  <path d="M3677 1234 c-4 -4 -7 -214 -7 -466 l0 -459 138 3 137 3 0 460 0 460 -131 3 c-71 1 -133 -1 -137 -4z"/>
</g>
</svg>
